<svg width="51" height="18" viewBox="0 0 51 18" fill="none" xmlns="http://www.w3.org/2000/svg">
<path d="M13 18V15H9V5H7V8H0V0H7V3H13V0H20V8H13V5H11V13H13V10H20V18H13ZM2 2V6V2ZM15 12V16V12ZM15 2V6V2ZM15 6H18V2H15V6ZM15 16H18V12H15V16ZM2 6H5V2H2V6Z" fill="#003D9B"/>
<path d="M24.7173 11V3.72727H29.4474V4.83168H26.0348V6.80611H29.2024V7.91051H26.0348V9.8956H29.4759V11H24.7173ZM30.7347 13.0455V5.54545H31.9989V6.44744H32.0735C32.1398 6.31487 32.2333 6.17401 32.354 6.02486C32.4748 5.87334 32.6381 5.74432 32.8441 5.63778C33.0501 5.52888 33.3129 5.47443 33.6325 5.47443C34.0539 5.47443 34.4338 5.58215 34.7724 5.79759C35.1133 6.01065 35.3832 6.3267 35.582 6.74574C35.7833 7.16241 35.8839 7.67377 35.8839 8.27983C35.8839 8.87879 35.7856 9.38778 35.5891 9.80682C35.3926 10.2259 35.1251 10.5455 34.7866 10.7656C34.448 10.9858 34.0645 11.0959 33.636 11.0959C33.3235 11.0959 33.0643 11.0438 32.8583 10.9396C32.6523 10.8355 32.4866 10.71 32.3612 10.5632C32.238 10.4141 32.1422 10.2732 32.0735 10.1406H32.0202V13.0455H30.7347ZM31.9954 8.27273C31.9954 8.62547 32.0451 8.93442 32.1445 9.19957C32.2463 9.46473 32.3919 9.67187 32.5813 9.82102C32.7731 9.9678 33.0051 10.0412 33.2773 10.0412C33.5614 10.0412 33.7994 9.96544 33.9911 9.81392C34.1829 9.66004 34.3273 9.45052 34.4244 9.18537C34.5238 8.91785 34.5735 8.61364 34.5735 8.27273C34.5735 7.93419 34.525 7.63352 34.4279 7.37074C34.3308 7.10795 34.1864 6.90199 33.9947 6.75284C33.8029 6.60369 33.5638 6.52912 33.2773 6.52912C33.0027 6.52912 32.7695 6.60133 32.5778 6.74574C32.386 6.89015 32.2404 7.09257 32.141 7.35298C32.0439 7.6134 31.9954 7.91998 31.9954 8.27273ZM36.9847 11V5.54545H38.2702V11H36.9847ZM37.631 4.77131C37.4274 4.77131 37.2522 4.70384 37.1055 4.56889C36.9587 4.43158 36.8853 4.26705 36.8853 4.07528C36.8853 3.88116 36.9587 3.71662 37.1055 3.58168C37.2522 3.44437 37.4274 3.37571 37.631 3.37571C37.837 3.37571 38.0122 3.44437 38.1566 3.58168C38.3034 3.71662 38.3768 3.88116 38.3768 4.07528C38.3768 4.26705 38.3034 4.43158 38.1566 4.56889C38.0122 4.70384 37.837 4.77131 37.631 4.77131ZM41.9714 11.1065C41.4269 11.1065 40.9593 10.987 40.5687 10.7479C40.1805 10.5088 39.881 10.1785 39.6703 9.7571C39.4619 9.33333 39.3578 8.84564 39.3578 8.29403C39.3578 7.74006 39.4643 7.25118 39.6774 6.82741C39.8904 6.40128 40.1911 6.06984 40.5794 5.8331C40.97 5.59399 41.4316 5.47443 41.9643 5.47443C42.407 5.47443 42.7988 5.55611 43.1397 5.71946C43.483 5.88045 43.7565 6.1089 43.96 6.40483C44.1636 6.69839 44.2797 7.04167 44.3081 7.43466H43.0794C43.0297 7.17187 42.9113 6.95289 42.7243 6.7777C42.5396 6.60014 42.2922 6.51136 41.9821 6.51136C41.7193 6.51136 41.4885 6.58239 41.2896 6.72443C41.0907 6.86411 40.9357 7.06534 40.8244 7.32812C40.7155 7.59091 40.661 7.90578 40.661 8.27273C40.661 8.64441 40.7155 8.96402 40.8244 9.23153C40.9333 9.49669 41.086 9.70147 41.2825 9.84588C41.4814 9.98793 41.7145 10.0589 41.9821 10.0589C42.1715 10.0589 42.3407 10.0234 42.4899 9.95241C42.6414 9.87902 42.7681 9.77367 42.8699 9.63636C42.9717 9.49905 43.0415 9.33215 43.0794 9.13565H44.3081C44.2773 9.52154 44.1636 9.86364 43.9672 10.1619C43.7707 10.4579 43.5031 10.6899 43.1646 10.858C42.8261 11.0237 42.4283 11.1065 41.9714 11.1065ZM49.6747 6.98722L48.5028 7.11506C48.4697 6.99669 48.4117 6.88542 48.3288 6.78125C48.2483 6.67708 48.1394 6.59304 48.0021 6.52912C47.8648 6.4652 47.6967 6.43324 47.4979 6.43324C47.2304 6.43324 47.0054 6.49124 46.8232 6.60724C46.6432 6.72325 46.5545 6.87358 46.5568 7.05824C46.5545 7.21686 46.6125 7.34588 46.7308 7.44531C46.8516 7.54474 47.0504 7.62642 47.3274 7.69034L48.2578 7.8892C48.7739 8.00047 49.1574 8.17685 49.4084 8.41832C49.6617 8.6598 49.7895 8.97585 49.7919 9.36648C49.7895 9.70975 49.6889 10.0128 49.4901 10.2756C49.2936 10.536 49.0201 10.7396 48.6697 10.8864C48.3194 11.0331 47.9169 11.1065 47.4624 11.1065C46.7947 11.1065 46.2573 10.9669 45.8501 10.6875C45.4429 10.4058 45.2003 10.014 45.1222 9.51207L46.3757 9.39134C46.4325 9.63755 46.5533 9.82339 46.7379 9.94886C46.9226 10.0743 47.1629 10.1371 47.4588 10.1371C47.7642 10.1371 48.0092 10.0743 48.1939 9.94886C48.3809 9.82339 48.4744 9.66832 48.4744 9.48366C48.4744 9.32741 48.4141 9.19839 48.2933 9.09659C48.175 8.99479 47.9903 8.91667 47.7393 8.86222L46.8089 8.6669C46.2857 8.558 45.8987 8.37453 45.6477 8.11648C45.3968 7.85606 45.2725 7.52699 45.2749 7.12926C45.2725 6.79309 45.3636 6.50189 45.5483 6.25568C45.7353 6.0071 45.9946 5.81534 46.326 5.6804C46.6598 5.54309 47.0445 5.47443 47.4801 5.47443C48.1193 5.47443 48.6224 5.61056 48.9893 5.88281C49.3587 6.15507 49.5871 6.5232 49.6747 6.98722Z" fill="#003D9B"/>
</svg>
